<?xml version="1.0" encoding="UTF-8" standalone="no"?>
<!DOCTYPE svg PUBLIC "-//W3C//DTD SVG 1.1//EN"
 "http://www.w3.org/Graphics/SVG/1.1/DTD/svg11.dtd">
<!-- Generated by graphviz version 2.44.1 (20200629.0800)
 -->
<!-- Title: Tree Pages: 1 -->
<svg width="650pt" height="433pt"
 viewBox="0.00 0.00 650.00 433.00" xmlns="http://www.w3.org/2000/svg" xmlns:xlink="http://www.w3.org/1999/xlink">
<g id="graph0" class="graph" transform="scale(1 1) rotate(0) translate(4 429)">
<title>Tree</title>
<polygon fill="white" stroke="transparent" points="-4,4 -4,-429 646,-429 646,4 -4,4"/>
<!-- 0 -->
<g id="node1" class="node">
<title>0</title>
<path fill="#f3fdf7" stroke="black" d="M363,-425C363,-425 246,-425 246,-425 240,-425 234,-419 234,-413 234,-413 234,-354 234,-354 234,-348 240,-342 246,-342 246,-342 363,-342 363,-342 369,-342 375,-348 375,-354 375,-354 375,-413 375,-413 375,-419 369,-425 363,-425"/>
<text text-anchor="middle" x="304.5" y="-409.8" font-family="Helvetica,sans-Serif" font-size="14.00">flavanoids &lt;= 1.575</text>
<text text-anchor="middle" x="304.5" y="-394.8" font-family="Helvetica,sans-Serif" font-size="14.00">entropy = 1.575</text>
<text text-anchor="middle" x="304.5" y="-379.8" font-family="Helvetica,sans-Serif" font-size="14.00">samples = 124</text>
<text text-anchor="middle" x="304.5" y="-364.8" font-family="Helvetica,sans-Serif" font-size="14.00">value = [42, 47, 35]</text>
<text text-anchor="middle" x="304.5" y="-349.8" font-family="Helvetica,sans-Serif" font-size="14.00">class = 酒2</text>
</g>
<!-- 1 -->
<g id="node2" class="node">
<title>1</title>
<path fill="#9e66eb" stroke="black" d="M272,-306C272,-306 175,-306 175,-306 169,-306 163,-300 163,-294 163,-294 163,-235 163,-235 163,-229 169,-223 175,-223 175,-223 272,-223 272,-223 278,-223 284,-229 284,-235 284,-235 284,-294 284,-294 284,-300 278,-306 272,-306"/>
<text text-anchor="middle" x="223.5" y="-290.8" font-family="Helvetica,sans-Serif" font-size="14.00">hue &lt;= 0.935</text>
<text text-anchor="middle" x="223.5" y="-275.8" font-family="Helvetica,sans-Serif" font-size="14.00">entropy = 0.693</text>
<text text-anchor="middle" x="223.5" y="-260.8" font-family="Helvetica,sans-Serif" font-size="14.00">samples = 43</text>
<text text-anchor="middle" x="223.5" y="-245.8" font-family="Helvetica,sans-Serif" font-size="14.00">value = [0, 8, 35]</text>
<text text-anchor="middle" x="223.5" y="-230.8" font-family="Helvetica,sans-Serif" font-size="14.00">class = 酒3</text>
</g>
<!-- 0&#45;&gt;1 -->
<g id="edge1" class="edge">
<title>0&#45;&gt;1</title>
<path fill="none" stroke="black" d="M276.4,-341.91C270.24,-333.01 263.66,-323.51 257.31,-314.33"/>
<polygon fill="black" stroke="black" points="260.12,-312.25 251.55,-306.02 254.37,-316.24 260.12,-312.25"/>
<text text-anchor="middle" x="247.08" y="-326.92" font-family="Helvetica,sans-Serif" font-size="14.00">True</text>
</g>
<!-- 6 -->
<g id="node7" class="node">
<title>6</title>
<path fill="#fdf6f1" stroke="black" d="M439,-306C439,-306 334,-306 334,-306 328,-306 322,-300 322,-294 322,-294 322,-235 322,-235 322,-229 328,-223 334,-223 334,-223 439,-223 439,-223 445,-223 451,-229 451,-235 451,-235 451,-294 451,-294 451,-300 445,-306 439,-306"/>
<text text-anchor="middle" x="386.5" y="-290.8" font-family="Helvetica,sans-Serif" font-size="14.00">proline &lt;= 724.5</text>
<text text-anchor="middle" x="386.5" y="-275.8" font-family="Helvetica,sans-Serif" font-size="14.00">entropy = 0.999</text>
<text text-anchor="middle" x="386.5" y="-260.8" font-family="Helvetica,sans-Serif" font-size="14.00">samples = 81</text>
<text text-anchor="middle" x="386.5" y="-245.8" font-family="Helvetica,sans-Serif" font-size="14.00">value = [42, 39, 0]</text>
<text text-anchor="middle" x="386.5" y="-230.8" font-family="Helvetica,sans-Serif" font-size="14.00">class = 酒1</text>
</g>
<!-- 0&#45;&gt;6 -->
<g id="edge6" class="edge">
<title>0&#45;&gt;6</title>
<path fill="none" stroke="black" d="M332.95,-341.91C339.18,-333.01 345.84,-323.51 352.28,-314.33"/>
<polygon fill="black" stroke="black" points="355.23,-316.22 358.1,-306.02 349.5,-312.2 355.23,-316.22"/>
<text text-anchor="middle" x="362.43" y="-326.94" font-family="Helvetica,sans-Serif" font-size="14.00">False</text>
</g>
<!-- 2 -->
<g id="node3" class="node">
<title>2</title>
<path fill="#8139e5" stroke="black" d="M109,-179.5C109,-179.5 12,-179.5 12,-179.5 6,-179.5 0,-173.5 0,-167.5 0,-167.5 0,-123.5 0,-123.5 0,-117.5 6,-111.5 12,-111.5 12,-111.5 109,-111.5 109,-111.5 115,-111.5 121,-117.5 121,-123.5 121,-123.5 121,-167.5 121,-167.5 121,-173.5 115,-179.5 109,-179.5"/>
<text text-anchor="middle" x="60.5" y="-164.3" font-family="Helvetica,sans-Serif" font-size="14.00">entropy = 0.0</text>
<text text-anchor="middle" x="60.5" y="-149.3" font-family="Helvetica,sans-Serif" font-size="14.00">samples = 34</text>
<text text-anchor="middle" x="60.5" y="-134.3" font-family="Helvetica,sans-Serif" font-size="14.00">value = [0, 0, 34]</text>
<text text-anchor="middle" x="60.5" y="-119.3" font-family="Helvetica,sans-Serif" font-size="14.00">class = 酒3</text>
</g>
<!-- 1&#45;&gt;2 -->
<g id="edge2" class="edge">
<title>1&#45;&gt;2</title>
<path fill="none" stroke="black" d="M166.95,-222.91C150.19,-210.88 131.88,-197.73 115.24,-185.79"/>
<polygon fill="black" stroke="black" points="116.87,-182.65 106.71,-179.67 112.79,-188.34 116.87,-182.65"/>
</g>
<!-- 3 -->
<g id="node4" class="node">
<title>3</title>
<path fill="#52e891" stroke="black" d="M295.5,-187C295.5,-187 151.5,-187 151.5,-187 145.5,-187 139.5,-181 139.5,-175 139.5,-175 139.5,-116 139.5,-116 139.5,-110 145.5,-104 151.5,-104 151.5,-104 295.5,-104 295.5,-104 301.5,-104 307.5,-110 307.5,-116 307.5,-116 307.5,-175 307.5,-175 307.5,-181 301.5,-187 295.5,-187"/>
<text text-anchor="middle" x="223.5" y="-171.8" font-family="Helvetica,sans-Serif" font-size="14.00">color_intensity &lt;= 5.815</text>
<text text-anchor="middle" x="223.5" y="-156.8" font-family="Helvetica,sans-Serif" font-size="14.00">entropy = 0.503</text>
<text text-anchor="middle" x="223.5" y="-141.8" font-family="Helvetica,sans-Serif" font-size="14.00">samples = 9</text>
<text text-anchor="middle" x="223.5" y="-126.8" font-family="Helvetica,sans-Serif" font-size="14.00">value = [0, 8, 1]</text>
<text text-anchor="middle" x="223.5" y="-111.8" font-family="Helvetica,sans-Serif" font-size="14.00">class = 酒2</text>
</g>
<!-- 1&#45;&gt;3 -->
<g id="edge3" class="edge">
<title>1&#45;&gt;3</title>
<path fill="none" stroke="black" d="M223.5,-222.91C223.5,-214.65 223.5,-205.86 223.5,-197.3"/>
<polygon fill="black" stroke="black" points="227,-197.02 223.5,-187.02 220,-197.02 227,-197.02"/>
</g>
<!-- 4 -->
<g id="node5" class="node">
<title>4</title>
<path fill="#39e581" stroke="black" d="M211,-68C211,-68 122,-68 122,-68 116,-68 110,-62 110,-56 110,-56 110,-12 110,-12 110,-6 116,0 122,0 122,0 211,0 211,0 217,0 223,-6 223,-12 223,-12 223,-56 223,-56 223,-62 217,-68 211,-68"/>
<text text-anchor="middle" x="166.5" y="-52.8" font-family="Helvetica,sans-Serif" font-size="14.00">entropy = 0.0</text>
<text text-anchor="middle" x="166.5" y="-37.8" font-family="Helvetica,sans-Serif" font-size="14.00">samples = 8</text>
<text text-anchor="middle" x="166.5" y="-22.8" font-family="Helvetica,sans-Serif" font-size="14.00">value = [0, 8, 0]</text>
<text text-anchor="middle" x="166.5" y="-7.8" font-family="Helvetica,sans-Serif" font-size="14.00">class = 酒2</text>
</g>
<!-- 3&#45;&gt;4 -->
<g id="edge4" class="edge">
<title>3&#45;&gt;4</title>
<path fill="none" stroke="black" d="M202.28,-103.73C197.76,-95.06 192.99,-85.9 188.46,-77.18"/>
<polygon fill="black" stroke="black" points="191.56,-75.55 183.83,-68.3 185.35,-78.79 191.56,-75.55"/>
</g>
<!-- 5 -->
<g id="node6" class="node">
<title>5</title>
<path fill="#8139e5" stroke="black" d="M342,-68C342,-68 253,-68 253,-68 247,-68 241,-62 241,-56 241,-56 241,-12 241,-12 241,-6 247,0 253,0 253,0 342,0 342,0 348,0 354,-6 354,-12 354,-12 354,-56 354,-56 354,-62 348,-68 342,-68"/>
<text text-anchor="middle" x="297.5" y="-52.8" font-family="Helvetica,sans-Serif" font-size="14.00">entropy = 0.0</text>
<text text-anchor="middle" x="297.5" y="-37.8" font-family="Helvetica,sans-Serif" font-size="14.00">samples = 1</text>
<text text-anchor="middle" x="297.5" y="-22.8" font-family="Helvetica,sans-Serif" font-size="14.00">value = [0, 0, 1]</text>
<text text-anchor="middle" x="297.5" y="-7.8" font-family="Helvetica,sans-Serif" font-size="14.00">class = 酒3</text>
</g>
<!-- 3&#45;&gt;5 -->
<g id="edge5" class="edge">
<title>3&#45;&gt;5</title>
<path fill="none" stroke="black" d="M251.05,-103.73C257.03,-94.88 263.37,-85.51 269.37,-76.63"/>
<polygon fill="black" stroke="black" points="272.3,-78.54 275,-68.3 266.5,-74.63 272.3,-78.54"/>
</g>
<!-- 7 -->
<g id="node8" class="node">
<title>7</title>
<path fill="#39e581" stroke="black" d="M435,-179.5C435,-179.5 338,-179.5 338,-179.5 332,-179.5 326,-173.5 326,-167.5 326,-167.5 326,-123.5 326,-123.5 326,-117.5 332,-111.5 338,-111.5 338,-111.5 435,-111.5 435,-111.5 441,-111.5 447,-117.5 447,-123.5 447,-123.5 447,-167.5 447,-167.5 447,-173.5 441,-179.5 435,-179.5"/>
<text text-anchor="middle" x="386.5" y="-164.3" font-family="Helvetica,sans-Serif" font-size="14.00">entropy = 0.0</text>
<text text-anchor="middle" x="386.5" y="-149.3" font-family="Helvetica,sans-Serif" font-size="14.00">samples = 37</text>
<text text-anchor="middle" x="386.5" y="-134.3" font-family="Helvetica,sans-Serif" font-size="14.00">value = [0, 37, 0]</text>
<text text-anchor="middle" x="386.5" y="-119.3" font-family="Helvetica,sans-Serif" font-size="14.00">class = 酒2</text>
</g>
<!-- 6&#45;&gt;7 -->
<g id="edge7" class="edge">
<title>6&#45;&gt;7</title>
<path fill="none" stroke="black" d="M386.5,-222.91C386.5,-212.2 386.5,-200.62 386.5,-189.78"/>
<polygon fill="black" stroke="black" points="390,-189.67 386.5,-179.67 383,-189.67 390,-189.67"/>
</g>
<!-- 8 -->
<g id="node9" class="node">
<title>8</title>
<path fill="#e68742" stroke="black" d="M574,-187C574,-187 477,-187 477,-187 471,-187 465,-181 465,-175 465,-175 465,-116 465,-116 465,-110 471,-104 477,-104 477,-104 574,-104 574,-104 580,-104 586,-110 586,-116 586,-116 586,-175 586,-175 586,-181 580,-187 574,-187"/>
<text text-anchor="middle" x="525.5" y="-171.8" font-family="Helvetica,sans-Serif" font-size="14.00">alcohol &lt;= 12.7</text>
<text text-anchor="middle" x="525.5" y="-156.8" font-family="Helvetica,sans-Serif" font-size="14.00">entropy = 0.267</text>
<text text-anchor="middle" x="525.5" y="-141.8" font-family="Helvetica,sans-Serif" font-size="14.00">samples = 44</text>
<text text-anchor="middle" x="525.5" y="-126.8" font-family="Helvetica,sans-Serif" font-size="14.00">value = [42, 2, 0]</text>
<text text-anchor="middle" x="525.5" y="-111.8" font-family="Helvetica,sans-Serif" font-size="14.00">class = 酒1</text>
</g>
<!-- 6&#45;&gt;8 -->
<g id="edge8" class="edge">
<title>6&#45;&gt;8</title>
<path fill="none" stroke="black" d="M434.73,-222.91C445.94,-213.47 457.97,-203.34 469.49,-193.65"/>
<polygon fill="black" stroke="black" points="471.96,-196.14 477.36,-187.02 467.46,-190.78 471.96,-196.14"/>
</g>
<!-- 9 -->
<g id="node10" class="node">
<title>9</title>
<path fill="#39e581" stroke="black" d="M491,-68C491,-68 402,-68 402,-68 396,-68 390,-62 390,-56 390,-56 390,-12 390,-12 390,-6 396,0 402,0 402,0 491,0 491,0 497,0 503,-6 503,-12 503,-12 503,-56 503,-56 503,-62 497,-68 491,-68"/>
<text text-anchor="middle" x="446.5" y="-52.8" font-family="Helvetica,sans-Serif" font-size="14.00">entropy = 0.0</text>
<text text-anchor="middle" x="446.5" y="-37.8" font-family="Helvetica,sans-Serif" font-size="14.00">samples = 2</text>
<text text-anchor="middle" x="446.5" y="-22.8" font-family="Helvetica,sans-Serif" font-size="14.00">value = [0, 2, 0]</text>
<text text-anchor="middle" x="446.5" y="-7.8" font-family="Helvetica,sans-Serif" font-size="14.00">class = 酒2</text>
</g>
<!-- 8&#45;&gt;9 -->
<g id="edge9" class="edge">
<title>8&#45;&gt;9</title>
<path fill="none" stroke="black" d="M496.08,-103.73C489.7,-94.88 482.94,-85.51 476.53,-76.63"/>
<polygon fill="black" stroke="black" points="479.21,-74.36 470.52,-68.3 473.54,-78.46 479.21,-74.36"/>
</g>
<!-- 10 -->
<g id="node11" class="node">
<title>10</title>
<path fill="#e58139" stroke="black" d="M630,-68C630,-68 533,-68 533,-68 527,-68 521,-62 521,-56 521,-56 521,-12 521,-12 521,-6 527,0 533,0 533,0 630,0 630,0 636,0 642,-6 642,-12 642,-12 642,-56 642,-56 642,-62 636,-68 630,-68"/>
<text text-anchor="middle" x="581.5" y="-52.8" font-family="Helvetica,sans-Serif" font-size="14.00">entropy = 0.0</text>
<text text-anchor="middle" x="581.5" y="-37.8" font-family="Helvetica,sans-Serif" font-size="14.00">samples = 42</text>
<text text-anchor="middle" x="581.5" y="-22.8" font-family="Helvetica,sans-Serif" font-size="14.00">value = [42, 0, 0]</text>
<text text-anchor="middle" x="581.5" y="-7.8" font-family="Helvetica,sans-Serif" font-size="14.00">class = 酒1</text>
</g>
<!-- 8&#45;&gt;10 -->
<g id="edge10" class="edge">
<title>8&#45;&gt;10</title>
<path fill="none" stroke="black" d="M546.35,-103.73C550.74,-95.15 555.37,-86.09 559.79,-77.46"/>
<polygon fill="black" stroke="black" points="563.03,-78.8 564.47,-68.3 556.8,-75.61 563.03,-78.8"/>
</g>
</g>
</svg>
